<svg xmlns="http://www.w3.org/2000/svg" width="1536" height="256" viewBox="0 0 1536 256">
  <defs>
    <linearGradient id="ai-metal" x1="74" y1="42" x2="176" y2="156" gradientUnits="userSpaceOnUse">
      <stop offset="0" stop-color="#fff5e2"/>
      <stop offset="0.45" stop-color="#d8c3a1"/>
      <stop offset="1" stop-color="#7d6749"/>
    </linearGradient>
    <linearGradient id="ai-face" x1="98" y1="58" x2="158" y2="130" gradientUnits="userSpaceOnUse">
      <stop offset="0" stop-color="#fff9ed"/>
      <stop offset="1" stop-color="#ccb492"/>
    </linearGradient>
    <linearGradient id="ai-body" x1="66" y1="150" x2="194" y2="230" gradientUnits="userSpaceOnUse">
      <stop offset="0" stop-color="#533d2f"/>
      <stop offset="1" stop-color="#2b1f18"/>
    </linearGradient>
    <linearGradient id="ai-brass" x1="96" y1="34" x2="160" y2="78" gradientUnits="userSpaceOnUse">
      <stop offset="0" stop-color="#ffe4ab"/>
      <stop offset="1" stop-color="#b88a3f"/>
    </linearGradient>
    <radialGradient id="ai-halo" cx="0" cy="0" r="1" gradientUnits="userSpaceOnUse" gradientTransform="translate(128 92) rotate(90) scale(86)">
      <stop offset="0" stop-color="#f0d3a0" stop-opacity="0.75"/>
      <stop offset="1" stop-color="#f0d3a0" stop-opacity="0"/>
    </radialGradient>
    <symbol id="spark" viewBox="0 0 16 16">
      <path d="M8 0l2 6 6 2-6 2-2 6-2-6-6-2 6-2z" fill="#f8dc9f"/>
    </symbol>
    <symbol id="ai-base" viewBox="0 0 256 256">
      <ellipse cx="128" cy="212" rx="70" ry="16" fill="#2f241d" fill-opacity="0.2"/>
      <path d="M54 208c0-33 33-58 74-58s74 25 74 58v16H54z" fill="url(#ai-body)"/>
      <path d="M88 148h80v30H88z" fill="#433125"/>
      <path d="M95 155h18v10H95zm24 0h18v10h-18zm24 0h18v10h-18z" fill="#d0ba95" fill-opacity="0.76"/>
      <circle cx="128" cy="94" r="54" fill="url(#ai-metal)"/>
      <ellipse cx="128" cy="96" rx="39" ry="31" fill="url(#ai-face)"/>
      <circle cx="70" cy="98" r="14" fill="#3c2f25"/>
      <circle cx="186" cy="98" r="14" fill="#3c2f25"/>
      <circle cx="70" cy="98" r="8.5" fill="#b59a6f"/>
      <circle cx="186" cy="98" r="8.5" fill="#b59a6f"/>
      <rect x="109" y="30" width="38" height="9" rx="4.5" fill="url(#ai-brass)"/>
      <circle cx="128" cy="28" r="7.5" fill="#e2bc75"/>
      <path d="M122 111h12l-2 11h-8z" fill="#8b6e48"/>
    </symbol>
  </defs>

  <g transform="translate(0 0)">
    <g transform="translate(0 -1)">
      <circle cx="128" cy="92" r="86" fill="url(#ai-halo)" opacity="0.9"/>
      <use href="#spark" x="47" y="34" opacity="0.72"/>
      <use href="#spark" x="194" y="44" opacity="0.64"/>
      <use href="#ai-base"/>
      <ellipse cx="110" cy="95" rx="8.3" ry="4" fill="#fff7ea"/>
      <ellipse cx="146" cy="95" rx="8.3" ry="4" fill="#fff7ea"/>
      <circle cx="113.5" cy="95" r="2.4" fill="#9e1111"/>
      <circle cx="149.5" cy="95" r="2.4" fill="#9e1111"/>
      <path d="M111 121q17 14 34 2" fill="none" stroke="#5a4636" stroke-width="4.4" stroke-linecap="round"/>
      <circle cx="128" cy="24" r="17" fill="none" stroke="#f2cf8c" stroke-width="2.7" stroke-opacity="0.52"/>
    </g>
  </g>

  <g transform="translate(256 0)">
    <g transform="translate(0 -4)">
      <circle cx="128" cy="92" r="88" fill="url(#ai-halo)" opacity="0.98"/>
      <use href="#spark" x="43" y="30" opacity="0.95"/>
      <use href="#spark" x="198" y="38" opacity="0.84"/>
      <use href="#ai-base"/>
      <ellipse cx="110.5" cy="95" rx="8.2" ry="3.8" fill="#fff7ea"/>
      <ellipse cx="146.5" cy="95" rx="8.2" ry="3.8" fill="#fff7ea"/>
      <circle cx="114" cy="95" r="2.4" fill="#9e1111"/>
      <circle cx="150" cy="95" r="2.4" fill="#9e1111"/>
      <path d="M111 121q17 15 34 3" fill="none" stroke="#5a4636" stroke-width="4.4" stroke-linecap="round"/>
      <circle cx="128" cy="24" r="20" fill="none" stroke="#f2cf8c" stroke-width="3" stroke-opacity="0.64"/>
    </g>
  </g>

  <g transform="translate(512 0)">
    <g transform="translate(0 -6)">
      <circle cx="128" cy="92" r="90" fill="url(#ai-halo)" opacity="1"/>
      <use href="#spark" x="40" y="27" opacity="1"/>
      <use href="#spark" x="202" y="34" opacity="0.95"/>
      <use href="#spark" x="118" y="6" opacity="0.82"/>
      <use href="#ai-base"/>
      <ellipse cx="111" cy="95" rx="8.1" ry="3.7" fill="#fff7ea"/>
      <ellipse cx="147" cy="95" rx="8.1" ry="3.7" fill="#fff7ea"/>
      <circle cx="114.5" cy="95" r="2.3" fill="#9e1111"/>
      <circle cx="150.5" cy="95" r="2.3" fill="#9e1111"/>
      <path d="M111 121q17 16 34 4" fill="none" stroke="#5a4636" stroke-width="4.4" stroke-linecap="round"/>
      <circle cx="128" cy="24" r="23" fill="none" stroke="#f2cf8c" stroke-width="3.2" stroke-opacity="0.72"/>
    </g>
  </g>

  <g transform="translate(768 0)">
    <g transform="translate(0 -4)">
      <circle cx="128" cy="92" r="88" fill="url(#ai-halo)" opacity="0.98"/>
      <use href="#spark" x="43" y="30" opacity="0.92"/>
      <use href="#spark" x="198" y="38" opacity="0.84"/>
      <use href="#ai-base"/>
      <ellipse cx="111" cy="95" rx="8.2" ry="3.8" fill="#fff7ea"/>
      <ellipse cx="147" cy="95" rx="8.2" ry="3.8" fill="#fff7ea"/>
      <circle cx="114.5" cy="95" r="2.4" fill="#9e1111"/>
      <circle cx="150.5" cy="95" r="2.4" fill="#9e1111"/>
      <path d="M111 121q17 15 34 3" fill="none" stroke="#5a4636" stroke-width="4.4" stroke-linecap="round"/>
      <circle cx="128" cy="24" r="20" fill="none" stroke="#f2cf8c" stroke-width="3" stroke-opacity="0.64"/>
    </g>
  </g>

  <g transform="translate(1024 0)">
    <g transform="translate(0 -2)">
      <circle cx="128" cy="92" r="87" fill="url(#ai-halo)" opacity="0.95"/>
      <use href="#spark" x="45" y="32" opacity="0.78"/>
      <use href="#spark" x="196" y="40" opacity="0.7"/>
      <use href="#ai-base"/>
      <ellipse cx="110.5" cy="95" rx="8.3" ry="3.9" fill="#fff7ea"/>
      <ellipse cx="146.5" cy="95" rx="8.3" ry="3.9" fill="#fff7ea"/>
      <circle cx="114" cy="95" r="2.4" fill="#9e1111"/>
      <circle cx="150" cy="95" r="2.4" fill="#9e1111"/>
      <path d="M111 121q17 14 34 2" fill="none" stroke="#5a4636" stroke-width="4.4" stroke-linecap="round"/>
      <circle cx="128" cy="24" r="18.5" fill="none" stroke="#f2cf8c" stroke-width="2.8" stroke-opacity="0.56"/>
    </g>
  </g>

  <g transform="translate(1280 0)">
    <g transform="translate(0 -1)">
      <circle cx="128" cy="92" r="86" fill="url(#ai-halo)" opacity="0.9"/>
      <use href="#spark" x="47" y="34" opacity="0.72"/>
      <use href="#spark" x="194" y="44" opacity="0.64"/>
      <use href="#ai-base"/>
      <ellipse cx="110" cy="95" rx="8.3" ry="4" fill="#fff7ea"/>
      <ellipse cx="146" cy="95" rx="8.3" ry="4" fill="#fff7ea"/>
      <circle cx="113.5" cy="95" r="2.4" fill="#9e1111"/>
      <circle cx="149.5" cy="95" r="2.4" fill="#9e1111"/>
      <path d="M111 121q17 14 34 2" fill="none" stroke="#5a4636" stroke-width="4.4" stroke-linecap="round"/>
      <circle cx="128" cy="24" r="17" fill="none" stroke="#f2cf8c" stroke-width="2.7" stroke-opacity="0.52"/>
    </g>
  </g>
</svg>
