<svg xmlns="http://www.w3.org/2000/svg" width="1536" height="256" viewBox="0 0 1536 256">
  <defs>
    <linearGradient id="ai-metal" x1="74" y1="42" x2="176" y2="156" gradientUnits="userSpaceOnUse">
      <stop offset="0" stop-color="#fbf2e1"/>
      <stop offset="0.45" stop-color="#d0bc9c"/>
      <stop offset="1" stop-color="#7b664b"/>
    </linearGradient>
    <linearGradient id="ai-face" x1="98" y1="58" x2="158" y2="130" gradientUnits="userSpaceOnUse">
      <stop offset="0" stop-color="#fff7eb"/>
      <stop offset="1" stop-color="#cab293"/>
    </linearGradient>
    <linearGradient id="ai-body" x1="66" y1="150" x2="194" y2="230" gradientUnits="userSpaceOnUse">
      <stop offset="0" stop-color="#513d2f"/>
      <stop offset="1" stop-color="#2b1f18"/>
    </linearGradient>
    <linearGradient id="ai-brass" x1="96" y1="34" x2="160" y2="78" gradientUnits="userSpaceOnUse">
      <stop offset="0" stop-color="#f7dda1"/>
      <stop offset="1" stop-color="#ad8441"/>
    </linearGradient>
    <radialGradient id="ai-halo" cx="0" cy="0" r="1" gradientUnits="userSpaceOnUse" gradientTransform="translate(128 94) rotate(90) scale(78)">
      <stop offset="0" stop-color="#e5c78f" stop-opacity="0.62"/>
      <stop offset="1" stop-color="#e5c78f" stop-opacity="0"/>
    </radialGradient>
    <symbol id="ai-base" viewBox="0 0 256 256">
      <ellipse cx="128" cy="212" rx="70" ry="16" fill="#2f241d" fill-opacity="0.2"/>
      <path d="M54 208c0-33 33-58 74-58s74 25 74 58v16H54z" fill="url(#ai-body)"/>
      <path d="M88 148h80v30H88z" fill="#433125"/>
      <path d="M95 155h18v10H95zm24 0h18v10h-18zm24 0h18v10h-18z" fill="#d0ba95" fill-opacity="0.72"/>
      <circle cx="128" cy="94" r="54" fill="url(#ai-metal)"/>
      <ellipse cx="128" cy="96" rx="39" ry="31" fill="url(#ai-face)"/>
      <circle cx="70" cy="98" r="14" fill="#3c2f25"/>
      <circle cx="186" cy="98" r="14" fill="#3c2f25"/>
      <circle cx="70" cy="98" r="8.5" fill="#b59a6f"/>
      <circle cx="186" cy="98" r="8.5" fill="#b59a6f"/>
      <rect x="109" y="30" width="38" height="9" rx="4.5" fill="url(#ai-brass)"/>
      <circle cx="128" cy="28" r="7.5" fill="#dbb977"/>
      <path d="M122 111h12l-2 11h-8z" fill="#8b6e48"/>
    </symbol>
  </defs>

  <g transform="translate(0 0)">
    <g transform="translate(0 -1)">
      <circle cx="128" cy="94" r="79" fill="url(#ai-halo)" opacity="0.9"/>
      <use href="#ai-base"/>
      <path d="M101 87h17m20 0h17" stroke="#5d4736" stroke-width="3.2" stroke-linecap="round"/>
      <ellipse cx="110" cy="95" rx="8.4" ry="3.6" fill="#fef6ea"/>
      <ellipse cx="146" cy="95" rx="8.4" ry="3.6" fill="#fef6ea"/>
      <circle cx="113.5" cy="95" r="2.4" fill="#991212"/>
      <circle cx="149.5" cy="95" r="2.4" fill="#991212"/>
      <path d="M113 121q16 12 31 2" fill="none" stroke="#5a4636" stroke-width="4.4" stroke-linecap="round"/>
    </g>
  </g>

  <g transform="translate(256 0)">
    <g transform="translate(0 -2)">
      <circle cx="128" cy="94" r="80" fill="url(#ai-halo)" opacity="0.95"/>
      <use href="#ai-base"/>
      <path d="M101 87h17m20 0h17" stroke="#5d4736" stroke-width="3.2" stroke-linecap="round"/>
      <ellipse cx="110.5" cy="95" rx="8.3" ry="3.4" fill="#fef6ea"/>
      <ellipse cx="146.5" cy="95" rx="8.3" ry="3.4" fill="#fef6ea"/>
      <circle cx="114" cy="95" r="2.4" fill="#991212"/>
      <circle cx="150" cy="95" r="2.4" fill="#991212"/>
      <path d="M113 121q16 13 31 3" fill="none" stroke="#5a4636" stroke-width="4.4" stroke-linecap="round"/>
    </g>
  </g>

  <g transform="translate(512 0)">
    <g transform="translate(0 -3)">
      <circle cx="128" cy="94" r="81" fill="url(#ai-halo)" opacity="0.98"/>
      <use href="#ai-base"/>
      <path d="M101 87h17m20 0h17" stroke="#5d4736" stroke-width="3.2" stroke-linecap="round"/>
      <ellipse cx="111" cy="95" rx="8.2" ry="3.2" fill="#fef6ea"/>
      <ellipse cx="147" cy="95" rx="8.2" ry="3.2" fill="#fef6ea"/>
      <circle cx="114.5" cy="95" r="2.3" fill="#991212"/>
      <circle cx="150.5" cy="95" r="2.3" fill="#991212"/>
      <path d="M113 121q16 14 31 4" fill="none" stroke="#5a4636" stroke-width="4.4" stroke-linecap="round"/>
    </g>
  </g>

  <g transform="translate(768 0)">
    <g transform="translate(0 -2)">
      <circle cx="128" cy="94" r="80" fill="url(#ai-halo)" opacity="0.95"/>
      <use href="#ai-base"/>
      <path d="M101 87h17m20 0h17" stroke="#5d4736" stroke-width="3.2" stroke-linecap="round"/>
      <ellipse cx="111" cy="95" rx="8.2" ry="3.4" fill="#fef6ea"/>
      <ellipse cx="147" cy="95" rx="8.2" ry="3.4" fill="#fef6ea"/>
      <circle cx="114.5" cy="95" r="2.3" fill="#991212"/>
      <circle cx="150.5" cy="95" r="2.3" fill="#991212"/>
      <path d="M113 121q16 13 31 3" fill="none" stroke="#5a4636" stroke-width="4.4" stroke-linecap="round"/>
    </g>
  </g>

  <g transform="translate(1024 0)">
    <g transform="translate(0 -1)">
      <circle cx="128" cy="94" r="79" fill="url(#ai-halo)" opacity="0.92"/>
      <use href="#ai-base"/>
      <path d="M101 87h17m20 0h17" stroke="#5d4736" stroke-width="3.2" stroke-linecap="round"/>
      <ellipse cx="110.5" cy="95" rx="8.3" ry="3.6" fill="#fef6ea"/>
      <ellipse cx="146.5" cy="95" rx="8.3" ry="3.6" fill="#fef6ea"/>
      <circle cx="114" cy="95" r="2.4" fill="#991212"/>
      <circle cx="150" cy="95" r="2.4" fill="#991212"/>
      <path d="M113 121q16 12 31 2" fill="none" stroke="#5a4636" stroke-width="4.4" stroke-linecap="round"/>
    </g>
  </g>

  <g transform="translate(1280 0)">
    <g transform="translate(0 0)">
      <circle cx="128" cy="94" r="78" fill="url(#ai-halo)" opacity="0.88"/>
      <use href="#ai-base"/>
      <path d="M101 87h17m20 0h17" stroke="#5d4736" stroke-width="3.2" stroke-linecap="round"/>
      <ellipse cx="110" cy="95" rx="8.4" ry="3.7" fill="#fef6ea"/>
      <ellipse cx="146" cy="95" rx="8.4" ry="3.7" fill="#fef6ea"/>
      <circle cx="113.5" cy="95" r="2.4" fill="#991212"/>
      <circle cx="149.5" cy="95" r="2.4" fill="#991212"/>
      <path d="M113 121q16 11 31 2" fill="none" stroke="#5a4636" stroke-width="4.4" stroke-linecap="round"/>
    </g>
  </g>
</svg>
