<svg xmlns="http://www.w3.org/2000/svg" width="1536" height="256" viewBox="0 0 1536 256">
  <defs>
    <linearGradient id="h-skin" x1="92" y1="58" x2="160" y2="140" gradientUnits="userSpaceOnUse">
      <stop offset="0" stop-color="#ffe7cf"/>
      <stop offset="1" stop-color="#ddb28e"/>
    </linearGradient>
    <linearGradient id="h-jacket" x1="60" y1="148" x2="196" y2="228" gradientUnits="userSpaceOnUse">
      <stop offset="0" stop-color="#812227"/>
      <stop offset="1" stop-color="#4c1117"/>
    </linearGradient>
    <linearGradient id="h-shirt" x1="102" y1="148" x2="154" y2="204" gradientUnits="userSpaceOnUse">
      <stop offset="0" stop-color="#fff1dc"/>
      <stop offset="1" stop-color="#e5c8a4"/>
    </linearGradient>
    <linearGradient id="h-hair" x1="86" y1="44" x2="164" y2="108" gradientUnits="userSpaceOnUse">
      <stop offset="0" stop-color="#4c2e21"/>
      <stop offset="1" stop-color="#27150f"/>
    </linearGradient>
    <radialGradient id="h-halo" cx="0" cy="0" r="1" gradientUnits="userSpaceOnUse" gradientTransform="translate(128 98) rotate(90) scale(80)">
      <stop offset="0" stop-color="#cb9374" stop-opacity="0.48"/>
      <stop offset="1" stop-color="#cb9374" stop-opacity="0"/>
    </radialGradient>
    <symbol id="h-shell" viewBox="0 0 256 256">
      <ellipse cx="128" cy="212" rx="70" ry="16" fill="#3c1f18" fill-opacity="0.2"/>
      <path d="M52 208c0-33 34-59 76-59s76 26 76 59v16H52z" fill="url(#h-jacket)"/>
      <path d="M93 148h70v35H93z" fill="url(#h-shirt)"/>
      <path d="M127 149l-13 19h27z" fill="#9e2a32" fill-opacity="0.78"/>
      <circle cx="128" cy="174" r="9" fill="#b59056"/>
      <path d="M128 168l3 6 6 2-6 2-3 6-3-6-6-2 6-2z" fill="#f7ddb0"/>
    </symbol>
    <symbol id="h-head" viewBox="0 0 256 256">
      <rect x="110" y="132" width="36" height="18" rx="8" fill="#efc39e"/>
      <ellipse cx="128" cy="92" rx="45" ry="49" fill="url(#h-skin)"/>
      <path d="M84 92c0-33 20-54 44-54s47 19 47 52c-13-8-29-13-46-13-18 0-32 5-45 15z" fill="url(#h-hair)"/>
      <path d="M98 126q30 17 60 0" fill="#d39f7d" fill-opacity="0.62"/>
      <circle cx="86" cy="98" r="8.4" fill="#e3b692"/>
      <circle cx="170" cy="98" r="8.4" fill="#e3b692"/>
      <circle cx="86" cy="98" r="3.2" fill="#f6d8bd"/>
      <circle cx="170" cy="98" r="3.2" fill="#f6d8bd"/>
    </symbol>
  </defs>

  <g transform="translate(0 0)">
    <g transform="translate(0 0)">
      <circle cx="128" cy="98" r="80" fill="url(#h-halo)" opacity="0.82"/>
      <use href="#h-shell"/>
      <g transform="translate(-2 0) rotate(-2 128 96)">
        <use href="#h-head"/>
        <path d="M102 85h16m20 0h16" stroke="#44271d" stroke-width="3.1" stroke-linecap="round"/>
        <ellipse cx="112" cy="95" rx="7.7" ry="4.2" fill="#fff9f0"/>
        <ellipse cx="144" cy="95" rx="7.7" ry="4.2" fill="#fff9f0"/>
        <circle cx="108" cy="95" r="2.3" fill="#40261c"/>
        <circle cx="140" cy="95" r="2.3" fill="#40261c"/>
        <path d="M114 122q14 4 28 0" fill="none" stroke="#7a4c37" stroke-width="4" stroke-linecap="round"/>
      </g>
    </g>
  </g>

  <g transform="translate(256 0)">
    <g transform="translate(0 -1)">
      <circle cx="128" cy="98" r="81" fill="url(#h-halo)" opacity="0.88"/>
      <use href="#h-shell"/>
      <g transform="translate(-1 -1) rotate(-1 128 96)">
        <use href="#h-head"/>
        <path d="M102 85h16m20 0h16" stroke="#44271d" stroke-width="3.1" stroke-linecap="round"/>
        <ellipse cx="112.5" cy="95" rx="7.6" ry="4.1" fill="#fff9f0"/>
        <ellipse cx="144.5" cy="95" rx="7.6" ry="4.1" fill="#fff9f0"/>
        <circle cx="116.5" cy="95" r="2.3" fill="#40261c"/>
        <circle cx="148.5" cy="95" r="2.3" fill="#40261c"/>
        <path d="M114 122q14 4 28 0" fill="none" stroke="#7a4c37" stroke-width="4" stroke-linecap="round"/>
      </g>
    </g>
  </g>

  <g transform="translate(512 0)">
    <g transform="translate(0 -2)">
      <circle cx="128" cy="98" r="82" fill="url(#h-halo)" opacity="0.92"/>
      <use href="#h-shell"/>
      <g transform="translate(0 -1)">
        <use href="#h-head"/>
        <path d="M102 85h16m20 0h16" stroke="#44271d" stroke-width="3.1" stroke-linecap="round"/>
        <ellipse cx="113" cy="95" rx="7.5" ry="3.8" fill="#fff9f0"/>
        <ellipse cx="145" cy="95" rx="7.5" ry="3.8" fill="#fff9f0"/>
        <circle cx="117" cy="95" r="2.2" fill="#40261c"/>
        <circle cx="149" cy="95" r="2.2" fill="#40261c"/>
        <path d="M114 122q14 4 28 0" fill="none" stroke="#7a4c37" stroke-width="4" stroke-linecap="round"/>
      </g>
    </g>
  </g>

  <g transform="translate(768 0)">
    <g transform="translate(0 -1)">
      <circle cx="128" cy="98" r="81" fill="url(#h-halo)" opacity="0.88"/>
      <use href="#h-shell"/>
      <g transform="translate(1 -1) rotate(1 128 96)">
        <use href="#h-head"/>
        <path d="M102 85h16m20 0h16" stroke="#44271d" stroke-width="3.1" stroke-linecap="round"/>
        <ellipse cx="112.5" cy="95" rx="7.6" ry="4.1" fill="#fff9f0"/>
        <ellipse cx="144.5" cy="95" rx="7.6" ry="4.1" fill="#fff9f0"/>
        <circle cx="108.5" cy="95" r="2.3" fill="#40261c"/>
        <circle cx="140.5" cy="95" r="2.3" fill="#40261c"/>
        <path d="M114 122q14 4 28 0" fill="none" stroke="#7a4c37" stroke-width="4" stroke-linecap="round"/>
      </g>
    </g>
  </g>

  <g transform="translate(1024 0)">
    <g transform="translate(0 0)">
      <circle cx="128" cy="98" r="80" fill="url(#h-halo)" opacity="0.84"/>
      <use href="#h-shell"/>
      <g transform="translate(1 0) rotate(1.5 128 96)">
        <use href="#h-head"/>
        <path d="M102 85h16m20 0h16" stroke="#44271d" stroke-width="3.1" stroke-linecap="round"/>
        <ellipse cx="112" cy="95" rx="7.7" ry="4.2" fill="#fff9f0"/>
        <ellipse cx="144" cy="95" rx="7.7" ry="4.2" fill="#fff9f0"/>
        <circle cx="108" cy="95" r="2.3" fill="#40261c"/>
        <circle cx="140" cy="95" r="2.3" fill="#40261c"/>
        <path d="M114 122q14 4 28 0" fill="none" stroke="#7a4c37" stroke-width="4" stroke-linecap="round"/>
      </g>
    </g>
  </g>

  <g transform="translate(1280 0)">
    <g transform="translate(0 1)">
      <circle cx="128" cy="98" r="79" fill="url(#h-halo)" opacity="0.8"/>
      <use href="#h-shell"/>
      <g transform="translate(0 0) rotate(2 128 96)">
        <use href="#h-head"/>
        <path d="M102 85h16m20 0h16" stroke="#44271d" stroke-width="3.1" stroke-linecap="round"/>
        <ellipse cx="111.5" cy="95" rx="7.7" ry="4.2" fill="#fff9f0"/>
        <ellipse cx="143.5" cy="95" rx="7.7" ry="4.2" fill="#fff9f0"/>
        <circle cx="107.5" cy="95" r="2.3" fill="#40261c"/>
        <circle cx="139.5" cy="95" r="2.3" fill="#40261c"/>
        <path d="M114 122q14 4 28 0" fill="none" stroke="#7a4c37" stroke-width="4" stroke-linecap="round"/>
      </g>
    </g>
  </g>
</svg>
