<svg xmlns="http://www.w3.org/2000/svg" width="1536" height="256" viewBox="0 0 1536 256">
  <defs>
    <linearGradient id="h-skin" x1="92" y1="58" x2="160" y2="140" gradientUnits="userSpaceOnUse">
      <stop offset="0" stop-color="#f7dfc7"/>
      <stop offset="1" stop-color="#d3a680"/>
    </linearGradient>
    <linearGradient id="h-jacket" x1="60" y1="148" x2="196" y2="228" gradientUnits="userSpaceOnUse">
      <stop offset="0" stop-color="#6f1d22"/>
      <stop offset="1" stop-color="#3e0d12"/>
    </linearGradient>
    <linearGradient id="h-shirt" x1="102" y1="148" x2="154" y2="204" gradientUnits="userSpaceOnUse">
      <stop offset="0" stop-color="#f5e3cc"/>
      <stop offset="1" stop-color="#d8b996"/>
    </linearGradient>
    <linearGradient id="h-hair" x1="86" y1="44" x2="164" y2="108" gradientUnits="userSpaceOnUse">
      <stop offset="0" stop-color="#43291d"/>
      <stop offset="1" stop-color="#22130d"/>
    </linearGradient>
    <radialGradient id="h-halo" cx="0" cy="0" r="1" gradientUnits="userSpaceOnUse" gradientTransform="translate(128 98) rotate(90) scale(76)">
      <stop offset="0" stop-color="#a97761" stop-opacity="0.28"/>
      <stop offset="1" stop-color="#a97761" stop-opacity="0"/>
    </radialGradient>
    <symbol id="h-base" viewBox="0 0 256 256">
      <ellipse cx="128" cy="212" rx="70" ry="16" fill="#3c1f18" fill-opacity="0.2"/>
      <path d="M52 208c0-33 34-59 76-59s76 26 76 59v16H52z" fill="url(#h-jacket)"/>
      <path d="M93 148h70v35H93z" fill="url(#h-shirt)"/>
      <path d="M127 149l-13 19h27z" fill="#84222a" fill-opacity="0.68"/>
      <rect x="110" y="132" width="36" height="18" rx="8" fill="#dfb18b"/>
      <ellipse cx="128" cy="92" rx="45" ry="49" fill="url(#h-skin)"/>
      <path d="M84 92c0-33 20-54 44-54s47 19 47 52c-13-8-29-13-46-13-18 0-32 5-45 15z" fill="url(#h-hair)"/>
      <path d="M98 126q30 17 60 0" fill="#c79372" fill-opacity="0.5"/>
      <circle cx="86" cy="98" r="8.4" fill="#d6a883"/>
      <circle cx="170" cy="98" r="8.4" fill="#d6a883"/>
      <circle cx="128" cy="174" r="9" fill="#9d7a49"/>
      <path d="M128 168l3 6 6 2-6 2-3 6-3-6-6-2 6-2z" fill="#ebcf9f"/>
    </symbol>
  </defs>

  <g transform="translate(0 0)">
    <g transform="translate(0 0)">
      <circle cx="128" cy="98" r="76" fill="url(#h-halo)" opacity="0.64"/>
      <use href="#h-base"/>
      <path d="M104 90h15m18 0h15" stroke="#472b20" stroke-width="3" stroke-linecap="round"/>
      <ellipse cx="112" cy="95" rx="7.5" ry="3.7" fill="#f8ecdd"/>
      <ellipse cx="144" cy="95" rx="7.5" ry="3.7" fill="#f8ecdd"/>
      <circle cx="112" cy="95" r="2.2" fill="#3a2219"/>
      <circle cx="144" cy="95" r="2.2" fill="#3a2219"/>
      <path d="M113 126q15 -9 30 0" fill="none" stroke="#744833" stroke-width="4.1" stroke-linecap="round"/>
    </g>
  </g>

  <g transform="translate(256 0)">
    <g transform="translate(0 1)">
      <circle cx="128" cy="98" r="75" fill="url(#h-halo)" opacity="0.58"/>
      <use href="#h-base"/>
      <path d="M104 90h15m18 0h15" stroke="#472b20" stroke-width="3" stroke-linecap="round"/>
      <ellipse cx="112" cy="95" rx="7.4" ry="3.5" fill="#f8ecdd"/>
      <ellipse cx="144" cy="95" rx="7.4" ry="3.5" fill="#f8ecdd"/>
      <circle cx="112" cy="95" r="2.1" fill="#3a2219"/>
      <circle cx="144" cy="95" r="2.1" fill="#3a2219"/>
      <path d="M113 126q15 -10 30 0" fill="none" stroke="#744833" stroke-width="4.1" stroke-linecap="round"/>
    </g>
  </g>

  <g transform="translate(512 0)">
    <g transform="translate(0 2)">
      <circle cx="128" cy="98" r="74" fill="url(#h-halo)" opacity="0.52"/>
      <use href="#h-base"/>
      <path d="M104 90h15m18 0h15" stroke="#472b20" stroke-width="3" stroke-linecap="round"/>
      <ellipse cx="112" cy="95" rx="7.3" ry="3.2" fill="#f8ecdd"/>
      <ellipse cx="144" cy="95" rx="7.3" ry="3.2" fill="#f8ecdd"/>
      <circle cx="112" cy="95" r="2" fill="#3a2219"/>
      <circle cx="144" cy="95" r="2" fill="#3a2219"/>
      <path d="M113 126q15 -11 30 0" fill="none" stroke="#744833" stroke-width="4.1" stroke-linecap="round"/>
    </g>
  </g>

  <g transform="translate(768 0)">
    <g transform="translate(0 2)">
      <circle cx="128" cy="98" r="74" fill="url(#h-halo)" opacity="0.52"/>
      <use href="#h-base"/>
      <path d="M104 90h15m18 0h15" stroke="#472b20" stroke-width="3" stroke-linecap="round"/>
      <ellipse cx="111.5" cy="95" rx="7.3" ry="3.2" fill="#f8ecdd"/>
      <ellipse cx="143.5" cy="95" rx="7.3" ry="3.2" fill="#f8ecdd"/>
      <circle cx="111.5" cy="95" r="2" fill="#3a2219"/>
      <circle cx="143.5" cy="95" r="2" fill="#3a2219"/>
      <path d="M113 126q15 -11 30 0" fill="none" stroke="#744833" stroke-width="4.1" stroke-linecap="round"/>
    </g>
  </g>

  <g transform="translate(1024 0)">
    <g transform="translate(0 1)">
      <circle cx="128" cy="98" r="75" fill="url(#h-halo)" opacity="0.58"/>
      <use href="#h-base"/>
      <path d="M104 90h15m18 0h15" stroke="#472b20" stroke-width="3" stroke-linecap="round"/>
      <ellipse cx="111.5" cy="95" rx="7.4" ry="3.5" fill="#f8ecdd"/>
      <ellipse cx="143.5" cy="95" rx="7.4" ry="3.5" fill="#f8ecdd"/>
      <circle cx="111.5" cy="95" r="2.1" fill="#3a2219"/>
      <circle cx="143.5" cy="95" r="2.1" fill="#3a2219"/>
      <path d="M113 126q15 -10 30 0" fill="none" stroke="#744833" stroke-width="4.1" stroke-linecap="round"/>
    </g>
  </g>

  <g transform="translate(1280 0)">
    <g transform="translate(0 0)">
      <circle cx="128" cy="98" r="76" fill="url(#h-halo)" opacity="0.64"/>
      <use href="#h-base"/>
      <path d="M104 90h15m18 0h15" stroke="#472b20" stroke-width="3" stroke-linecap="round"/>
      <ellipse cx="112" cy="95" rx="7.5" ry="3.7" fill="#f8ecdd"/>
      <ellipse cx="144" cy="95" rx="7.5" ry="3.7" fill="#f8ecdd"/>
      <circle cx="112" cy="95" r="2.2" fill="#3a2219"/>
      <circle cx="144" cy="95" r="2.2" fill="#3a2219"/>
      <path d="M113 126q15 -9 30 0" fill="none" stroke="#744833" stroke-width="4.1" stroke-linecap="round"/>
    </g>
  </g>
</svg>
