<svg xmlns="http://www.w3.org/2000/svg" width="1536" height="256" viewBox="0 0 1536 256">
  <defs>
    <linearGradient id="h-skin" x1="92" y1="58" x2="160" y2="140" gradientUnits="userSpaceOnUse">
      <stop offset="0" stop-color="#ffe9d2"/>
      <stop offset="1" stop-color="#deb28b"/>
    </linearGradient>
    <linearGradient id="h-jacket" x1="60" y1="148" x2="196" y2="228" gradientUnits="userSpaceOnUse">
      <stop offset="0" stop-color="#92292e"/>
      <stop offset="1" stop-color="#55151a"/>
    </linearGradient>
    <linearGradient id="h-shirt" x1="102" y1="148" x2="154" y2="204" gradientUnits="userSpaceOnUse">
      <stop offset="0" stop-color="#fff3de"/>
      <stop offset="1" stop-color="#e8ca9f"/>
    </linearGradient>
    <linearGradient id="h-hair" x1="86" y1="44" x2="164" y2="108" gradientUnits="userSpaceOnUse">
      <stop offset="0" stop-color="#4c2e21"/>
      <stop offset="1" stop-color="#27150f"/>
    </linearGradient>
    <radialGradient id="h-halo" cx="0" cy="0" r="1" gradientUnits="userSpaceOnUse" gradientTransform="translate(128 98) rotate(90) scale(88)">
      <stop offset="0" stop-color="#e0a77f" stop-opacity="0.66"/>
      <stop offset="1" stop-color="#e0a77f" stop-opacity="0"/>
    </radialGradient>
    <symbol id="spark" viewBox="0 0 16 16">
      <path d="M8 0l2 6 6 2-6 2-2 6-2-6-6-2 6-2z" fill="#f6d9a2"/>
    </symbol>
    <symbol id="h-base" viewBox="0 0 256 256">
      <ellipse cx="128" cy="212" rx="70" ry="16" fill="#3c1f18" fill-opacity="0.2"/>
      <path d="M52 208c0-33 34-59 76-59s76 26 76 59v16H52z" fill="url(#h-jacket)"/>
      <path d="M93 148h70v35H93z" fill="url(#h-shirt)"/>
      <path d="M127 149l-13 19h27z" fill="#af353d" fill-opacity="0.84"/>
      <rect x="110" y="132" width="36" height="18" rx="8" fill="#efc39e"/>
      <ellipse cx="128" cy="92" rx="45" ry="49" fill="url(#h-skin)"/>
      <path d="M84 92c0-33 20-54 44-54s47 19 47 52c-13-8-29-13-46-13-18 0-32 5-45 15z" fill="url(#h-hair)"/>
      <path d="M98 126q30 17 60 0" fill="#d39f7d" fill-opacity="0.62"/>
      <circle cx="86" cy="98" r="8.4" fill="#e3b692"/>
      <circle cx="170" cy="98" r="8.4" fill="#e3b692"/>
      <circle cx="128" cy="174" r="9.4" fill="#bc9758"/>
      <path d="M128 168l3 6 6 2-6 2-3 6-3-6-6-2 6-2z" fill="#f9e0b4"/>
    </symbol>
  </defs>

  <g transform="translate(0 0)">
    <g transform="translate(0 -1)">
      <circle cx="128" cy="98" r="88" fill="url(#h-halo)" opacity="0.9"/>
      <use href="#spark" x="48" y="35" opacity="0.7"/>
      <use href="#spark" x="193" y="43" opacity="0.65"/>
      <use href="#h-base"/>
      <ellipse cx="112" cy="95" rx="7.5" ry="3.8" fill="#fffaf0"/>
      <ellipse cx="144" cy="95" rx="7.5" ry="3.8" fill="#fffaf0"/>
      <circle cx="115.2" cy="95" r="2.3" fill="#3d241b"/>
      <circle cx="147.2" cy="95" r="2.3" fill="#3d241b"/>
      <path d="M112 121q16 16 32 4" fill="none" stroke="#7c4f39" stroke-width="4.3" stroke-linecap="round"/>
    </g>
  </g>

  <g transform="translate(256 0)">
    <g transform="translate(0 -4)">
      <circle cx="128" cy="98" r="90" fill="url(#h-halo)" opacity="0.98"/>
      <use href="#spark" x="45" y="30" opacity="0.95"/>
      <use href="#spark" x="198" y="37" opacity="0.86"/>
      <use href="#h-base"/>
      <ellipse cx="112.5" cy="95" rx="7.4" ry="3.7" fill="#fffaf0"/>
      <ellipse cx="144.5" cy="95" rx="7.4" ry="3.7" fill="#fffaf0"/>
      <circle cx="115.7" cy="95" r="2.3" fill="#3d241b"/>
      <circle cx="147.7" cy="95" r="2.3" fill="#3d241b"/>
      <path d="M112 121q16 17 32 5" fill="none" stroke="#7c4f39" stroke-width="4.3" stroke-linecap="round"/>
    </g>
  </g>

  <g transform="translate(512 0)">
    <g transform="translate(0 -6)">
      <circle cx="128" cy="98" r="92" fill="url(#h-halo)" opacity="1"/>
      <use href="#spark" x="41" y="26" opacity="1"/>
      <use href="#spark" x="202" y="32" opacity="0.96"/>
      <use href="#spark" x="118" y="7" opacity="0.82"/>
      <use href="#h-base"/>
      <ellipse cx="113" cy="95" rx="7.3" ry="3.6" fill="#fffaf0"/>
      <ellipse cx="145" cy="95" rx="7.3" ry="3.6" fill="#fffaf0"/>
      <circle cx="116.2" cy="95" r="2.2" fill="#3d241b"/>
      <circle cx="148.2" cy="95" r="2.2" fill="#3d241b"/>
      <path d="M112 121q16 18 32 6" fill="none" stroke="#7c4f39" stroke-width="4.3" stroke-linecap="round"/>
    </g>
  </g>

  <g transform="translate(768 0)">
    <g transform="translate(0 -4)">
      <circle cx="128" cy="98" r="90" fill="url(#h-halo)" opacity="0.98"/>
      <use href="#spark" x="45" y="30" opacity="0.92"/>
      <use href="#spark" x="198" y="37" opacity="0.86"/>
      <use href="#h-base"/>
      <ellipse cx="113" cy="95" rx="7.4" ry="3.7" fill="#fffaf0"/>
      <ellipse cx="145" cy="95" rx="7.4" ry="3.7" fill="#fffaf0"/>
      <circle cx="116.2" cy="95" r="2.3" fill="#3d241b"/>
      <circle cx="148.2" cy="95" r="2.3" fill="#3d241b"/>
      <path d="M112 121q16 17 32 5" fill="none" stroke="#7c4f39" stroke-width="4.3" stroke-linecap="round"/>
    </g>
  </g>

  <g transform="translate(1024 0)">
    <g transform="translate(0 -2)">
      <circle cx="128" cy="98" r="89" fill="url(#h-halo)" opacity="0.94"/>
      <use href="#spark" x="47" y="33" opacity="0.78"/>
      <use href="#spark" x="195" y="41" opacity="0.72"/>
      <use href="#h-base"/>
      <ellipse cx="112.5" cy="95" rx="7.5" ry="3.8" fill="#fffaf0"/>
      <ellipse cx="144.5" cy="95" rx="7.5" ry="3.8" fill="#fffaf0"/>
      <circle cx="115.7" cy="95" r="2.3" fill="#3d241b"/>
      <circle cx="147.7" cy="95" r="2.3" fill="#3d241b"/>
      <path d="M112 121q16 16 32 4" fill="none" stroke="#7c4f39" stroke-width="4.3" stroke-linecap="round"/>
    </g>
  </g>

  <g transform="translate(1280 0)">
    <g transform="translate(0 -1)">
      <circle cx="128" cy="98" r="88" fill="url(#h-halo)" opacity="0.9"/>
      <use href="#spark" x="48" y="35" opacity="0.7"/>
      <use href="#spark" x="193" y="43" opacity="0.65"/>
      <use href="#h-base"/>
      <ellipse cx="112" cy="95" rx="7.5" ry="3.8" fill="#fffaf0"/>
      <ellipse cx="144" cy="95" rx="7.5" ry="3.8" fill="#fffaf0"/>
      <circle cx="115.2" cy="95" r="2.3" fill="#3d241b"/>
      <circle cx="147.2" cy="95" r="2.3" fill="#3d241b"/>
      <path d="M112 121q16 16 32 4" fill="none" stroke="#7c4f39" stroke-width="4.3" stroke-linecap="round"/>
    </g>
  </g>
</svg>
